<svg width="20" height="20" viewBox="0 0 20 20" fill="none" xmlns="http://www.w3.org/2000/svg">
<path id="Vector" d="M20 14.7107V18.3471C20 19.1736 19.3333 20 18.5 20C8.33333 20 0 11.7355 0 1.65289C0 0.826446 0.666666 0 1.5 0H5.33333C6.16667 0 6.83333 0.826446 6.83333 1.65289C6.83333 2.86501 7.05556 4.02204 7.5 5.12397C7.66667 5.78512 7.5 6.44628 7 6.77686L5.33333 8.92562C6.66667 11.5702 8.5 13.2231 11 14.5455L13.3333 12.8926C13.6667 12.562 14.3333 12.3967 14.8333 12.562C16.0556 13.0028 17.2778 13.2231 18.5 13.2231C19.3333 13.2231 20 13.8843 20 14.7107Z" fill="#006FEB"/>
</svg>
